<?xml version="1.0" encoding="utf-8"?>
<!-- Generator: Adobe Illustrator 15.0.0, SVG Export Plug-In . SVG Version: 6.00 Build 0)  -->
<!DOCTYPE svg PUBLIC "-//W3C//DTD SVG 1.1//EN" "http://www.w3.org/Graphics/SVG/1.1/DTD/svg11.dtd">
<svg version="1.1" id="Layer_1" xmlns="http://www.w3.org/2000/svg" xmlns:xlink="http://www.w3.org/1999/xlink" x="0px" y="0px"
	 width="130px" height="100px" viewBox="73.544 0 130 100" enable-background="new 73.544 0 130 100" xml:space="preserve">
	 path{
	 fill:#990000;
	 }
<g>
	<g>
		<path d="M187.206,65.686c3.338-3.883,6.492-7.551,6.609-10.586c0.359-9.204-16.295-27.725-20.4-32.144
			c2.303-1.372,7.834-4.435,11.262-4.435c0.528,0,0.969,0.077,1.307,0.229c1.443,0.647,4.34,7.321,6.27,13.289
			c-1.006,2.168-1.16,3.846-0.457,4.989c0.527,0.861,1.499,1.336,2.73,1.336c0.867,0,1.855-0.235,2.787-0.66
			c1.121-0.513,1.914-1.371,2.29-2.48c0.823-2.412-0.535-5.375-0.812-5.938c-0.948-3.053-5.573-17.188-10.317-18.593
			c-1.222-0.362-2.661-0.546-4.271-0.546c-6.22,0-13.734,2.666-17.942,5.299c-0.599,0.374-1.546,1.079-2.64,1.99
			c0.354-1.195,0.531-2.482,0.512-3.804c-0.074-5.492-3.567-9.961-7.872-9.961c0,0,0,0-0.001,0
			c-2.125,0.029-4.088,1.143-5.526,3.137c-1.375,1.903-2.111,4.402-2.076,7.036c0.075,5.492,3.571,9.959,7.794,9.959h0.082
			c0.314-0.004,0.626-0.04,0.933-0.092c-1.151,1.534-1.976,3.047-2.09,4.318c-0.073,0.796-0.089,1.82-0.108,3.007
			c-0.052,3.169-0.138,8.435-1.765,9.575c-0.005,0-0.013,0-0.021,0.001c-2.089,0-10.204-3.311-11.804-5.726
			c-0.956-1.444-2.516-2.342-4.071-2.342c-1.127,0-2.132,0.469-2.831,1.32c-0.689,0.839-1.395,2.445-0.843,5.329
			c0.515,2.7,2.296,4.248,4.885,4.248c0.455,0,0.845-0.05,1.116-0.098c1.893,0.893,11.404,5.258,16.248,5.258
			c0.835,0,1.508-0.122,2.055-0.373c2.607-1.194,4.078-8.054,4.725-12.043c3.465,3.584,9.192,10.315,9.096,14.064
			c-0.034,1.382-2.738,5.376-4.91,8.589c-2.123,3.139-4.318,6.381-5.334,8.793c-0.986,2.346-0.789,7.037-0.582,12.008
			c0.174,4.184,0.414,9.912-0.57,10.902c-0.176,0.154-0.991,0.598-1.645,0.953c-3.373,1.836-5.395,3.064-4.994,4.65
			c0.335,1.338,2.098,1.611,4.639,1.611c3.281,0,10.965,0,10.965-5.99c0-0.389-0.023-1.117-0.057-2.084
			c-0.148-4.41-0.546-16.123,1.077-19.07c1.315-2.395,6.44-9.516,8.724-11.004c-0.566,1.23-1.873,3.352-2.889,5.004
			c-2.72,4.418-4.5,7.447-4.471,9.234c0.049,3.094,2.223,8.086,4.145,12.488c1.15,2.643,2.34,5.373,2.469,6.475
			c-0.25,0.436-1.533,1.375-2.312,1.943c-1.896,1.393-3.398,2.49-2.978,3.84c0.362,1.172,1.847,1.363,3.397,1.396
			c0.269,0.008,0.534,0.01,0.791,0.01c0,0,0,0,0.002,0c5.26,0,8.596-1.238,9.912-3.682c1.452-2.695-0.165-5.582-0.695-6.402
			c-2.604-4.029-6.018-13.121-5.148-16.295C182.157,71.561,184.724,68.574,187.206,65.686z M156.505,21.741l-0.055,1.031v-1.031
			c-3.107,0-5.686-3.556-5.745-7.926c-0.03-2.192,0.568-4.25,1.685-5.795c1.051-1.455,2.434-2.268,3.953-2.288
			c3.107,0,5.683,3.556,5.742,7.928c0.029,2.192-0.568,4.25-1.685,5.794C159.351,20.91,157.966,21.722,156.505,21.741z
			 M185.023,91.039c0.771,1.193,1.337,2.949,0.612,4.295c-0.919,1.703-3.724,2.605-8.112,2.605h-0.002
			c-0.243,0-0.492-0.004-0.746-0.01c-0.486-0.012-0.84-0.041-1.091-0.076c0.485-0.445,1.288-1.033,1.833-1.434
			c1.807-1.322,3.234-2.367,3.159-3.637c-0.079-1.326-1.058-3.629-2.647-7.277c-1.75-4.016-3.93-9.016-3.972-11.693
			c-0.021-1.314,2.397-5.244,4.163-8.113c2.793-4.541,3.744-6.23,3.422-7.371c-0.103-0.371-0.346-0.67-0.68-0.838
			c-0.262-0.131-0.549-0.197-0.855-0.197c-0.964,0-2.709,0.596-6.705,5.738c-2.088,2.686-4.071,5.713-4.549,6.582
			c-1.672,3.035-1.611,11.885-1.332,20.139c0.031,0.936,0.055,1.641,0.055,2.016c0,2.791-2.584,3.93-8.916,3.93
			c-1.199,0-1.9-0.08-2.303-0.16c0.82-0.697,2.726-1.732,3.631-2.227c1.205-0.654,1.799-0.984,2.109-1.297
			c1.552-1.564,1.459-5.754,1.18-12.459c-0.182-4.312-0.385-9.201,0.422-11.119c0.934-2.223,3.07-5.381,5.139-8.438
			c3.246-4.795,5.219-7.842,5.266-9.696c0.154-6.022-9.996-15.923-11.154-17.033c-0.279-0.268-0.685-0.356-1.047-0.225
			c-0.363,0.129-0.624,0.453-0.674,0.838c-0.714,5.478-2.385,11.803-3.842,12.47c-0.186,0.085-0.547,0.188-1.205,0.188
			c-4.818,0-15.576-5.154-15.684-5.207c-0.221-0.107-0.477-0.127-0.713-0.064c-0.004,0.001-0.417,0.111-0.97,0.111
			c-1.603,0-2.544-0.842-2.874-2.575c-0.312-1.636-0.168-2.923,0.41-3.627c0.388-0.472,0.895-0.572,1.252-0.572
			c0.865,0,1.796,0.559,2.368,1.424c2.163,3.266,11.163,6.644,13.508,6.644c0.392,0,0.704-0.072,0.956-0.22
			c2.717-1.587,2.807-7.02,2.877-11.384c0.02-1.145,0.035-2.133,0.101-2.854c0.253-2.79,6.728-9.018,9.927-11.02
			c3.961-2.479,11.025-4.988,16.861-4.988c1.414,0,2.658,0.156,3.693,0.462c2.897,0.858,7.035,11.073,8.965,17.311
			c0.018,0.059,0.043,0.117,0.07,0.172c0.375,0.726,1.24,2.932,0.735,4.407c-0.194,0.573-0.59,0.987-1.2,1.267
			c-0.661,0.302-1.369,0.476-1.939,0.476c-0.352,0-0.807-0.062-0.989-0.358c-0.121-0.199-0.431-1.028,0.731-3.367
			c0.119-0.241,0.143-0.519,0.061-0.775c-0.717-2.252-4.44-13.557-7.512-14.936c-0.602-0.27-1.324-0.408-2.141-0.408
			c-4.994,0-13.088,5.191-13.43,5.413c-0.258,0.167-0.428,0.441-0.464,0.747c-0.036,0.307,0.065,0.613,0.28,0.835
			c0.21,0.22,21.072,22.161,20.706,31.565c-0.091,2.314-3.29,6.035-6.112,9.318c-2.752,3.201-5.352,6.227-6.041,8.736
			C178.398,77.523,182.854,87.684,185.023,91.039z"/>
		<path d="M193.32,41.506c-0.416-0.388-1.061-0.363-1.447,0.054c-0.385,0.417-0.359,1.069,0.055,1.457
			c0.044,0.042,4.45,4.215,4.45,7.836c0,0.568,0.458,1.029,1.023,1.029c0.566,0,1.024-0.461,1.024-1.029
			C198.425,46.332,193.529,41.702,193.32,41.506z"/>
		<path d="M199.441,41.424c-0.459-0.333-1.098-0.224-1.428,0.237c-0.33,0.463-0.226,1.107,0.236,1.439
			c0.027,0.021,2.957,2.168,3.25,5.44c0.049,0.535,0.495,0.938,1.02,0.938c0.03,0,0.062-0.001,0.093-0.004
			c0.564-0.051,0.979-0.553,0.93-1.12C203.162,44.153,199.592,41.535,199.441,41.424z"/>
		<path d="M137.667,47.417L137.667,47.417c-6.422,0-6.824-10.916-6.827-11.026c-0.017-0.569-0.497-1.019-1.054-1
			c-0.564,0.017-1.01,0.491-0.994,1.059c0.016,0.532,0.468,13.029,8.875,13.028c0.566,0,1.025-0.461,1.025-1.031
			C138.693,47.876,138.234,47.417,137.667,47.417z"/>
		<path d="M132.284,49.825c-3.652-0.282-5.216-6.05-5.232-6.108c-0.145-0.549-0.707-0.876-1.252-0.732
			c-0.545,0.146-0.871,0.708-0.729,1.258c0.077,0.296,1.951,7.244,7.057,7.638c0.025,0.002,0.052,0.004,0.079,0.004
			c0.53,0,0.979-0.41,1.021-0.951C133.271,50.364,132.849,49.869,132.284,49.825z"/>
		<path d="M183.972,5.726c2.504,0.293,9.193,1.885,10.041,5.678c0.106,0.479,0.529,0.804,0.998,0.804
			c0.074,0,0.149-0.008,0.227-0.025c0.553-0.125,0.896-0.677,0.773-1.232c-1.34-5.98-11.376-7.222-11.804-7.272
			c-0.565-0.072-1.071,0.34-1.136,0.904C183.007,5.148,183.408,5.661,183.972,5.726z"/>
		<path d="M190.807,2.055c0.038,0.005,3.864,0.458,4.972,3.055c0.168,0.39,0.545,0.625,0.941,0.625c0.135,0,0.271-0.027,0.403-0.084
			c0.52-0.225,0.761-0.831,0.536-1.354c-1.584-3.711-6.431-4.269-6.635-4.291c-0.569-0.055-1.064,0.349-1.126,0.915
			C189.837,1.483,190.245,1.993,190.807,2.055z"/>
	</g>
	<g>
		<path d="M89.999,88.881c0-0.566,0.457-1.027,1.021-1.027h11.578c0.564,0,1.021,0.461,1.021,1.027c0,0.568-0.457,1.027-1.021,1.027
			H91.021C90.456,89.908,89.999,89.449,89.999,88.881z"/>
		<path d="M89.318,92.99h8.855c0.564,0,1.021,0.459,1.021,1.027c0,0.566-0.456,1.027-1.021,1.027h-8.855
			c-0.564,0-1.021-0.461-1.021-1.027C88.296,93.449,88.752,92.99,89.318,92.99z"/>
		<path d="M85.138,58.455c0.124-0.092,0.27-0.154,0.425-0.182l6.54-1.143c-5.221-20.11-0.577-36.01,4.76-39.412
			c1.463-0.933,2.677-1.406,3.746-1.548c-0.382-0.46-0.726-0.978-1.016-1.562c-0.955-1.938-1.242-4.318-0.807-6.699
			C99.622,3.328,102.848,0,106.456,0c0.343,0,0.688,0.032,1.027,0.094c1.934,0.357,3.553,1.676,4.561,3.715
			c0.957,1.938,1.244,4.318,0.809,6.7c-0.783,4.284-3.652,7.468-6.972,7.866c0.31,0.275,0.626,0.563,0.951,0.863
			c6.427,3.127,11.351,0.8,11.78,0.376c0.188-0.21,0.725-0.903,1.346-1.706c2.334-3.018,4.724-6.05,6.02-7.066
			c2.137-1.673,5.2-1.66,10.029-1.5c2.58,0.085,4.506,1.202,5.147,2.985c0.442,1.228,0.161,2.572-0.703,3.346
			c-1.28,1.147-3.576,1.05-6.001,0.947c-1.615-0.068-3.448-0.146-4.18,0.286c-1.31,0.775-3.551,4.292-5.031,6.619
			c-0.688,1.08-1.28,2.012-1.729,2.615c-1.585,2.126-7.513,3.82-10.188,4.494c1.996,6.362,7.525,20.265,13.527,33.244
			c0,0,0,0,0,0.002l0,0c5.549,11.994,11.498,23.197,15.439,26.926c1.9,0.215,7.81,1.166,7.812,4.67c0,0.9-0.447,2.529-3.458,3.307
			c-1.056,0.273-2.384,0.41-3.811,0.41c-4.229,0-9.304-1.201-10.625-3.625c-1.252-2.293-7.523-12.996-9.669-16.654
			c-0.399,0.688-0.806,1.377-1.215,2.072c-2.015,3.42-4.093,6.945-5.571,10.658c3.17,0.531,9.075,1.934,9.33,5
			c0.141,1.689-1.85,2.766-5.915,3.197c-0.92,0.098-2.046,0.16-3.261,0.16c-4.924,0-11.33-1.006-11.795-4.646
			c-0.232-1.834,1.537-5.496,4.686-11.814c2.979-5.98,7.48-15.02,6.301-17.408c-0.793-1.598-2.117-2.711-3.521-3.889
			c-2.344-1.967-4.998-4.195-5.893-9.137c-0.57-3.148-4.626-14.016-6.365-18.596c-0.657,1.391-1.408,3.396-1.486,5.438
			c-0.072,1.884,0.594,5.602,1.234,9.196c0.729,4.084,1.42,7.941,1.246,9.984c-0.099,1.17-0.901,3.232-5.163,3.895
			c-3.733,0.582-9.932-0.148-10.828-2.338C84.199,60.389,83.901,59.359,85.138,58.455z M110.843,10.138
			c0.355-1.948,0.133-3.872-0.629-5.415c-0.713-1.444-1.813-2.37-3.101-2.607c-0.218-0.04-0.437-0.061-0.657-0.061
			c-2.58,0-5.014,2.678-5.663,6.229c-0.354,1.948-0.131,3.871,0.632,5.414c0.713,1.444,1.812,2.37,3.098,2.606
			C107.276,16.806,110.141,13.989,110.843,10.138z M133.996,94.576c1.077,1.973,8.11,3.254,12.138,2.215
			c0.579-0.148,1.922-0.576,1.922-1.314c0-1.35-3.66-2.414-6.302-2.66c-0.214-0.021-0.418-0.109-0.58-0.254
			c-3.778-3.354-9.085-12.896-14.212-23.635c-0.515,2.535-1.752,5.189-3.257,7.926C124.831,78.773,132.556,91.936,133.996,94.576z
			 M96.019,60.738c0.983-0.275,2.174-0.811,2.258-1.785c0.15-1.771-0.547-5.674-1.223-9.447c-0.69-3.874-1.348-7.532-1.266-9.639
			c0.166-4.279,2.737-8.196,2.845-8.36c0.212-0.319,0.589-0.494,0.962-0.451c0.379,0.042,0.703,0.292,0.842,0.649
			c0.264,0.686,6.496,16.838,7.255,21.033c0.763,4.209,2.915,6.016,5.192,7.926c1.506,1.264,3.061,2.568,4.041,4.553
			c1.52,3.07-1.654,9.912-6.302,19.242c-2.18,4.375-4.649,9.334-4.485,10.635c0.111,0.875,1.515,1.715,3.755,2.244
			c5.366,1.27,12.216,0.385,13.138-0.625c-0.33-1.26-4.83-2.695-8.818-3.227c-0.307-0.039-0.578-0.219-0.74-0.484
			c-0.158-0.264-0.191-0.59-0.087-0.883c1.552-4.328,3.907-8.32,6.18-12.182c3.505-5.947,6.53-11.088,5.351-15.365
			c-6.526-14.173-12.376-29.229-13.867-34.396c-0.003-0.01,0-0.02-0.003-0.03c-0.003-0.01-0.011-0.017-0.012-0.027
			c-0.014-0.059-0.002-0.115-0.005-0.173c-0.004-0.07-0.016-0.138-0.007-0.206c0.012-0.065,0.038-0.122,0.061-0.183
			c0.021-0.063,0.036-0.128,0.069-0.186c0.032-0.056,0.081-0.099,0.123-0.147c0.044-0.051,0.082-0.104,0.135-0.146
			c0.055-0.041,0.119-0.064,0.18-0.094c0.053-0.026,0.096-0.064,0.154-0.082c0.011-0.003,0.02,0,0.029-0.002s0.018-0.01,0.027-0.013
			c3.316-0.76,8.981-2.514,10.074-3.98c0.404-0.543,0.979-1.445,1.645-2.491c2.256-3.545,4.112-6.333,5.716-7.282
			c1.249-0.739,3.218-0.656,5.301-0.567c1.735,0.072,3.894,0.165,4.555-0.428c0.204-0.183,0.319-0.624,0.144-1.112
			c-0.348-0.965-1.58-1.574-3.295-1.631c-4.367-0.145-7.124-0.17-8.705,1.068c-1.204,0.944-4.105,4.692-5.662,6.706
			c-0.7,0.903-1.203,1.555-1.439,1.82c-1.262,1.407-7.375,3.482-14.334,0.026c-0.086-0.043-0.184-0.112-0.254-0.178
			c-2.898-2.68-3.984-3.679-7.59-1.382c-4.312,2.748-9.197,17.869-3.592,38.221c0.077,0.277,0.033,0.578-0.121,0.822
			c-0.152,0.246-0.402,0.414-0.688,0.463l-6.931,1.211C88.103,60.916,92.66,61.682,96.019,60.738z"/>
		<path d="M81.717,54.502c0.448-0.344,1.089-0.258,1.431,0.191c0.343,0.451,0.258,1.096-0.189,1.439
			c-0.037,0.027-3.564,2.781-2.07,5.035c0.313,0.475,0.187,1.109-0.283,1.426c-0.175,0.115-0.371,0.174-0.565,0.174
			c-0.329,0-0.654-0.162-0.851-0.459C77.156,59.244,79.822,55.959,81.717,54.502z"/>
		<path d="M75.486,54.592c0.397-0.4,1.041-0.398,1.439-0.002c0.4,0.398,0.402,1.051,0.007,1.453
			c-0.021,0.021-2.015,2.088-1.089,3.953c0.253,0.508,0.05,1.125-0.455,1.379c-0.147,0.072-0.304,0.107-0.457,0.107
			c-0.375,0-0.736-0.207-0.915-0.568C72.426,57.721,75.359,54.719,75.486,54.592z"/>
	</g>
</g>
</svg>
